<svg width="40" height="40" viewBox="0 0 40 40" fill="none" xmlns="http://www.w3.org/2000/svg">
  <defs>
    <linearGradient id="grad1" x1="0%" y1="0%" x2="100%" y2="100%">
      <stop offset="0%" style="stop-color:#667eea;stop-opacity:1" />
      <stop offset="100%" style="stop-color:#764ba2;stop-opacity:1" />
    </linearGradient>
  </defs>
  <rect width="40" height="40" rx="8" fill="url(#grad1)"/>
  <path d="M12 14h16c1.1 0 2 .9 2 2v12c0 1.1-.9 2-2 2H12c-1.1 0-2-.9-2-2V16c0-1.1.9-2 2-2z" fill="white" fill-opacity="0.2"/>
  <path d="M15 18h10M15 22h8M15 26h6" stroke="white" stroke-width="2" stroke-linecap="round"/>
  <circle cx="26" cy="18" r="2" fill="#FFD700"/>
  <path d="M26 16.5L26.7 17.8L28 17.6L27.3 18.9L28 20.2L26.7 20L26 21.3L25.3 20L24 20.2L24.7 18.9L24 17.6L25.3 17.8L26 16.5Z" fill="white"/>
</svg>